{"asset":{"generator":"Kaedim","version":"2.0"},"scene":0,"scenes":[{"name":"Scene","nodes":[0,1,2,3]}],"nodes":[{"mesh":0,"name":"kaedim_mesh_0_Mesh"},{"mesh":1,"name":"kaedim_mesh_0_Mesh.001"},{"mesh":2,"name":"kaedim_mesh_0_Mesh.002"},{"mesh":3,"name":"kaedim_mesh_0_Mesh.003"}],"materials":[{"doubleSided":true,"name":"New_Mat","pbrMetallicRoughness":{"baseColorTexture":{"index":0},"metallicFactor":0,"roughnessFactor":0.5}},{"doubleSided":true,"name":"New_Mat.001","pbrMetallicRoughness":{"baseColorTexture":{"index":1},"metallicFactor":0,"roughnessFactor":0.5}}],"meshes":[{"name":"kaedim_mesh_0_Mesh","primitives":[{"attributes":{"POSITION":0,"NORMAL":1,"TEXCOORD_0":2},"indices":3,"material":0},{"attributes":{"POSITION":4,"NORMAL":5,"TEXCOORD_0":6},"indices":7,"material":1}]},{"name":"kaedim_mesh_0_Mesh.004","primitives":[{"attributes":{"POSITION":8,"NORMAL":9,"TEXCOORD_0":10},"indices":11,"material":0},{"attributes":{"POSITION":12,"NORMAL":13,"TEXCOORD_0":14},"indices":15,"material":1}]},{"name":"kaedim_mesh_0_Mesh.005","primitives":[{"attributes":{"POSITION":16,"NORMAL":17,"TEXCOORD_0":18},"indices":19,"material":0},{"attributes":{"POSITION":20,"NORMAL":21,"TEXCOORD_0":22},"indices":23,"material":1}]},{"name":"kaedim_mesh_0_Mesh.006","primitives":[{"attributes":{"POSITION":24,"NORMAL":25,"TEXCOORD_0":26},"indices":27,"material":0},{"attributes":{"POSITION":28,"NORMAL":29,"TEXCOORD_0":30},"indices":31,"material":1}]}],"textures":[{"sampler":0,"source":0},{"sampler":0,"source":1}],"images":[{"bufferView":4,"mimeType":"image/png","name":"c1540cc3-e25a-43f4-8c46-88d7e2c76f8e"},{"bufferView":9,"mimeType":"image/png","name":"52fffbf6-7e09-4a84-bdcb-c16047b8d59c"}],"accessors":[{"bufferView":0,"componentType":5126,"count":93,"max":[0.16100099682807922,0.27493199706077576,0.04355299100279808],"min":[-0.16100099682807922,-0.9389730095863342,-0.043553005903959274],"type":"VEC3"},{"bufferView":1,"componentType":5126,"count":93,"type":"VEC3"},{"bufferView":2,"componentType":5126,"count":93,"type":"VEC2"},{"bufferView":3,"componentType":5123,"count":342,"type":"SCALAR"},{"bufferView":5,"componentType":5126,"count":82,"max":[0.16100099682807922,0.27493199706077576,-6.7011534099492565e-9],"min":[-0.16100099682807922,-0.9389730095863342,-0.043553054332733154],"type":"VEC3"},{"bufferView":6,"componentType":5126,"count":82,"type":"VEC3"},{"bufferView":7,"componentType":5126,"count":82,"type":"VEC2"},{"bufferView":8,"componentType":5123,"count":306,"type":"SCALAR"},{"bufferView":10,"componentType":5126,"count":88,"max":[0.05645199865102768,0.6215119957923889,0.045187994837760925],"min":[-0.05645199865102768,0.30787795782089233,-0.027473989874124527],"type":"VEC3"},{"bufferView":11,"componentType":5126,"count":88,"type":"VEC3"},{"bufferView":12,"componentType":5126,"count":88,"type":"VEC2"},{"bufferView":13,"componentType":5123,"count":132,"type":"SCALAR"},{"bufferView":14,"componentType":5126,"count":80,"max":[0.05645199865102768,0.6215119957923889,8.540700591197492e-9],"min":[-0.05645199865102768,0.30787795782089233,-0.045187994837760925],"type":"VEC3"},{"bufferView":15,"componentType":5126,"count":80,"type":"VEC3"},{"bufferView":16,"componentType":5126,"count":80,"type":"VEC2"},{"bufferView":17,"componentType":5123,"count":120,"type":"SCALAR"},{"bufferView":18,"componentType":5126,"count":2926,"max":[0.3616339862346649,0.5647860169410706,0.042692992836236954],"min":[-0.3616339862346649,-0.9999999403953552,-0.02660200744867325],"type":"VEC3"},{"bufferView":19,"componentType":5126,"count":2926,"type":"VEC3"},{"bufferView":20,"componentType":5126,"count":2926,"type":"VEC2"},{"bufferView":21,"componentType":5123,"count":15240,"type":"SCALAR"},{"bufferView":22,"componentType":5126,"count":2790,"max":[0.3616339862346649,0.5647860169410706,0.005765985231846571],"min":[-0.3616339862346649,-0.9999999403953552,-0.04269300773739815],"type":"VEC3"},{"bufferView":23,"componentType":5126,"count":2790,"type":"VEC3"},{"bufferView":24,"componentType":5126,"count":2790,"type":"VEC2"},{"bufferView":25,"componentType":5123,"count":14424,"type":"SCALAR"},{"bufferView":26,"componentType":5126,"count":577,"max":[0.0702110007405281,0.9999999403953552,0.01998600922524929],"min":[-0.0702110007405281,0.5909469723701477,7.204661311988048e-9],"type":"VEC3"},{"bufferView":27,"componentType":5126,"count":577,"type":"VEC3"},{"bufferView":28,"componentType":5126,"count":577,"type":"VEC2"},{"bufferView":29,"componentType":5123,"count":3060,"type":"SCALAR"},{"bufferView":30,"componentType":5126,"count":577,"max":[0.0702110007405281,0.9999999403953552,2.508493501807152e-8],"min":[-0.0702110007405281,0.5909469723701477,-0.019985990598797798],"type":"VEC3"},{"bufferView":31,"componentType":5126,"count":577,"type":"VEC3"},{"bufferView":32,"componentType":5126,"count":577,"type":"VEC2"},{"bufferView":33,"componentType":5123,"count":3060,"type":"SCALAR"}],"bufferViews":[{"buffer":0,"byteLength":1116,"byteOffset":0},{"buffer":0,"byteLength":1116,"byteOffset":1116},{"buffer":0,"byteLength":744,"byteOffset":2232},{"buffer":0,"byteLength":684,"byteOffset":2976},{"buffer":0,"byteLength":24216,"byteOffset":3660},{"buffer":0,"byteLength":984,"byteOffset":27876},{"buffer":0,"byteLength":984,"byteOffset":28860},{"buffer":0,"byteLength":656,"byteOffset":29844},{"buffer":0,"byteLength":612,"byteOffset":30500},{"buffer":0,"byteLength":24216,"byteOffset":31112},{"buffer":0,"byteLength":1056,"byteOffset":55328},{"buffer":0,"byteLength":1056,"byteOffset":56384},{"buffer":0,"byteLength":704,"byteOffset":57440},{"buffer":0,"byteLength":264,"byteOffset":58144},{"buffer":0,"byteLength":960,"byteOffset":58408},{"buffer":0,"byteLength":960,"byteOffset":59368},{"buffer":0,"byteLength":640,"byteOffset":60328},{"buffer":0,"byteLength":240,"byteOffset":60968},{"buffer":0,"byteLength":35112,"byteOffset":61208},{"buffer":0,"byteLength":35112,"byteOffset":96320},{"buffer":0,"byteLength":23408,"byteOffset":131432},{"buffer":0,"byteLength":30480,"byteOffset":154840},{"buffer":0,"byteLength":33480,"byteOffset":185320},{"buffer":0,"byteLength":33480,"byteOffset":218800},{"buffer":0,"byteLength":22320,"byteOffset":252280},{"buffer":0,"byteLength":28848,"byteOffset":274600},{"buffer":0,"byteLength":6924,"byteOffset":303448},{"buffer":0,"byteLength":6924,"byteOffset":310372},{"buffer":0,"byteLength":4616,"byteOffset":317296},{"buffer":0,"byteLength":6120,"byteOffset":321912},{"buffer":0,"byteLength":6924,"byteOffset":328032},{"buffer":0,"byteLength":6924,"byteOffset":334956},{"buffer":0,"byteLength":4616,"byteOffset":341880},{"buffer":0,"byteLength":6120,"byteOffset":346496}],"samplers":[{"magFilter":9729,"minFilter":9987}],"buffers":[{"byteLength":352616,"uri":"data:application/octet-stream;base64,"}]}