{
	"asset":{
		"generator":"Khronos glTF Blender I/O v3.5.30",
		"version":"2.0"
	},
	"scene":0,
	"scenes":[
		{
			"name":"Scene",
			"nodes":[
				0
			]
		}
	],
	"nodes":[
		{
			"mesh":0,
			"name":"Cube"
		}
	],
	"materials":[
		{
			"doubleSided":true,
			"name":"Material.001",
			"pbrMetallicRoughness":{
				"baseColorFactor":[
					0.8000000715255737,
					0.3587631285190582,
					0.10768890380859375,
					1
				],
				"metallicFactor":0.9589040875434875,
				"roughnessFactor":0.5
			}
		},
		{
			"doubleSided":true,
			"name":"Material.004",
			"pbrMetallicRoughness":{
				"baseColorFactor":[
					0.019853264093399048,
					0.007326021790504456,
					0.003351773601025343,
					1
				],
				"metallicFactor":0,
				"roughnessFactor":0.7598187327384949
			}
		},
		{
			"doubleSided":true,
			"name":"Material.005",
			"pbrMetallicRoughness":{
				"baseColorFactor":[
					0.021253012120723724,
					0.0067157140001654625,
					0.19750501215457916,
					1
				],
				"metallicFactor":0.5377643704414368,
				"roughnessFactor":0.5
			}
		}
	],
	"meshes":[
		{
			"name":"Cube.001",
			"primitives":[
				{
					"attributes":{
						"POSITION":0,
						"TEXCOORD_0":1,
						"NORMAL":2
					},
					"indices":3,
					"material":0
				},
				{
					"attributes":{
						"POSITION":4,
						"TEXCOORD_0":5,
						"NORMAL":6
					},
					"indices":7,
					"material":1
				},
				{
					"attributes":{
						"POSITION":8,
						"TEXCOORD_0":9,
						"NORMAL":10
					},
					"indices":11,
					"material":2
				}
			]
		}
	],
	"accessors":[
		{
			"bufferView":0,
			"componentType":5126,
			"count":588,
			"max":[
				1.0253297090530396,
				0.6847847104072571,
				0.5838303565979004
			],
			"min":[
				-1.025259256362915,
				-0.5488514304161072,
				-0.5446425676345825
			],
			"type":"VEC3"
		},
		{
			"bufferView":1,
			"componentType":5126,
			"count":588,
			"type":"VEC2"
		},
		{
			"bufferView":2,
			"componentType":5126,
			"count":588,
			"type":"VEC3"
		},
		{
			"bufferView":3,
			"componentType":5123,
			"count":1038,
			"type":"SCALAR"
		},
		{
			"bufferView":4,
			"componentType":5126,
			"count":78,
			"max":[
				1.0253297090530396,
				0.539527952671051,
				0.5440292954444885
			],
			"min":[
				-1.025259256362915,
				-0.5099443197250366,
				-0.5427613258361816
			],
			"type":"VEC3"
		},
		{
			"bufferView":5,
			"componentType":5126,
			"count":78,
			"type":"VEC2"
		},
		{
			"bufferView":6,
			"componentType":5126,
			"count":78,
			"type":"VEC3"
		},
		{
			"bufferView":7,
			"componentType":5123,
			"count":132,
			"type":"SCALAR"
		},
		{
			"bufferView":8,
			"componentType":5126,
			"count":96,
			"max":[
				0.8721036314964294,
				0.6049509644508362,
				0.4660767614841461
			],
			"min":[
				-0.8741263747215271,
				0.13950826227664948,
				-0.46480876207351685
			],
			"type":"VEC3"
		},
		{
			"bufferView":9,
			"componentType":5126,
			"count":96,
			"type":"VEC2"
		},
		{
			"bufferView":10,
			"componentType":5126,
			"count":96,
			"type":"VEC3"
		},
		{
			"bufferView":11,
			"componentType":5123,
			"count":144,
			"type":"SCALAR"
		}
	],
	"bufferViews":[
		{
			"buffer":0,
			"byteLength":7056,
			"byteOffset":0,
			"target":34962
		},
		{
			"buffer":0,
			"byteLength":4704,
			"byteOffset":7056,
			"target":34962
		},
		{
			"buffer":0,
			"byteLength":7056,
			"byteOffset":11760,
			"target":34962
		},
		{
			"buffer":0,
			"byteLength":2076,
			"byteOffset":18816,
			"target":34963
		},
		{
			"buffer":0,
			"byteLength":936,
			"byteOffset":20892,
			"target":34962
		},
		{
			"buffer":0,
			"byteLength":624,
			"byteOffset":21828,
			"target":34962
		},
		{
			"buffer":0,
			"byteLength":936,
			"byteOffset":22452,
			"target":34962
		},
		{
			"buffer":0,
			"byteLength":264,
			"byteOffset":23388,
			"target":34963
		},
		{
			"buffer":0,
			"byteLength":1152,
			"byteOffset":23652,
			"target":34962
		},
		{
			"buffer":0,
			"byteLength":768,
			"byteOffset":24804,
			"target":34962
		},
		{
			"buffer":0,
			"byteLength":1152,
			"byteOffset":25572,
			"target":34962
		},
		{
			"buffer":0,
			"byteLength":288,
			"byteOffset":26724,
			"target":34963
		}
	],
	"buffers":[
		{
			"byteLength":27012,
			"uri":"magic_box.bin"
		}
	]
}
