{
	"asset":{
		"generator":"Khronos glTF Blender I/O v3.5.30",
		"version":"2.0"
	},
	"scene":0,
	"scenes":[
		{
			"name":"Scene",
			"nodes":[
				0
			]
		}
	],
	"nodes":[
		{
			"mesh":0,
			"name":"1_2"
		}
	],
	"meshes":[
		{
			"name":"Plane.015",
			"primitives":[
				{
					"attributes":{
						"POSITION":0,
						"TEXCOORD_0":1,
						"NORMAL":2
					},
					"indices":3
				}
			]
		}
	],
	"accessors":[
		{
			"bufferView":0,
			"componentType":5126,
			"count":92,
			"max":[
				59.999996185302734,
				8.3778076171875,
				59.999996185302734
			],
			"min":[
				-60,
				0,
				-59.999996185302734
			],
			"type":"VEC3"
		},
		{
			"bufferView":1,
			"componentType":5126,
			"count":92,
			"type":"VEC2"
		},
		{
			"bufferView":2,
			"componentType":5126,
			"count":92,
			"type":"VEC3"
		},
		{
			"bufferView":3,
			"componentType":5123,
			"count":300,
			"type":"SCALAR"
		}
	],
	"bufferViews":[
		{
			"buffer":0,
			"byteLength":1104,
			"byteOffset":0,
			"target":34962
		},
		{
			"buffer":0,
			"byteLength":736,
			"byteOffset":1104,
			"target":34962
		},
		{
			"buffer":0,
			"byteLength":1104,
			"byteOffset":1840,
			"target":34962
		},
		{
			"buffer":0,
			"byteLength":600,
			"byteOffset":2944,
			"target":34963
		}
	],
	"buffers":[
		{
			"byteLength":3544,
			"uri":"1_2.bin"
		}
	]
}
