{
	"asset":{
		"generator":"Khronos glTF Blender I/O v3.5.30",
		"version":"2.0"
	},
	"scene":0,
	"scenes":[
		{
			"name":"Scene",
			"nodes":[
				0
			]
		}
	],
	"nodes":[
		{
			"mesh":0,
			"name":"Plane.002"
		}
	],
	"materials":[
		{
			"alphaMode":"BLEND",
			"name":"Material.003",
			"pbrMetallicRoughness":{
				"baseColorFactor":[
					0,
					0.6512705087661743,
					0.8000000715255737,
					0.0890410840511322
				],
				"metallicFactor":0
			}
		}
	],
	"meshes":[
		{
			"name":"Plane.002",
			"primitives":[
				{
					"attributes":{
						"POSITION":0,
						"TEXCOORD_0":1,
						"NORMAL":2
					},
					"indices":3,
					"material":0
				}
			]
		}
	],
	"accessors":[
		{
			"bufferView":0,
			"componentType":5126,
			"count":536,
			"max":[
				0.8445376753807068,
				0.13877226412296295,
				0.04311750456690788
			],
			"min":[
				-0.8445376753807068,
				-0.13877226412296295,
				-5.116017818450928
			],
			"type":"VEC3"
		},
		{
			"bufferView":1,
			"componentType":5126,
			"count":536,
			"type":"VEC2"
		},
		{
			"bufferView":2,
			"componentType":5126,
			"count":536,
			"type":"VEC3"
		},
		{
			"bufferView":3,
			"componentType":5123,
			"count":816,
			"type":"SCALAR"
		}
	],
	"bufferViews":[
		{
			"buffer":0,
			"byteLength":6432,
			"byteOffset":0,
			"target":34962
		},
		{
			"buffer":0,
			"byteLength":4288,
			"byteOffset":6432,
			"target":34962
		},
		{
			"buffer":0,
			"byteLength":6432,
			"byteOffset":10720,
			"target":34962
		},
		{
			"buffer":0,
			"byteLength":1632,
			"byteOffset":17152,
			"target":34963
		}
	],
	"buffers":[
		{
			"byteLength":18784,
			"uri":"crystal%20sword.bin"
		}
	]
}
