{
	"asset":{
		"generator":"Khronos glTF Blender I/O v3.5.30",
		"version":"2.0"
	},
	"scene":0,
	"scenes":[
		{
			"name":"Scene",
			"nodes":[
				0,
				1,
				2,
				3,
				4,
				5,
				6,
				7,
				8,
				9,
				10,
				11,
				12,
				13
			]
		}
	],
	"nodes":[
		{
			"mesh":0,
			"name":"Cylinder",
			"scale":[
				0.38317978382110596,
				0.38317978382110596,
				0.38317978382110596
			],
			"translation":[
				-0.12749920785427094,
				-0.05857235938310623,
				0.02219259738922119
			]
		},
		{
			"mesh":1,
			"name":"Cylinder.001",
			"scale":[
				0.38317978382110596,
				0.38317978382110596,
				0.38317978382110596
			],
			"translation":[
				-0.12749920785427094,
				-0.05857235938310623,
				-0.15142659842967987
			]
		},
		{
			"mesh":2,
			"name":"Cylinder.002",
			"scale":[
				0.38317978382110596,
				0.38317978382110596,
				0.38317978382110596
			],
			"translation":[
				0.06717076897621155,
				-0.05857235938310623,
				-0.12316471338272095
			]
		},
		{
			"mesh":3,
			"name":"Cylinder.003",
			"scale":[
				0.38317978382110596,
				0.38317978382110596,
				0.38317978382110596
			],
			"translation":[
				0.03988096863031387,
				-0.05857235938310623,
				0.05695691704750061
			]
		},
		{
			"mesh":4,
			"name":"Cylinder.004",
			"scale":[
				0.38317978382110596,
				0.38317978382110596,
				0.38317978382110596
			],
			"translation":[
				-0.02084266021847725,
				-0.03200819343328476,
				-0.058816440403461456
			]
		},
		{
			"mesh":5,
			"name":"Cylinder.005",
			"rotation":[
				0,
				0,
				-0.2344948947429657,
				0.9721174240112305
			],
			"scale":[
				0.38317978382110596,
				0.38317978382110596,
				0.38317978382110596
			],
			"translation":[
				0.1512121558189392,
				-0.03200819343328476,
				-0.058816440403461456
			]
		},
		{
			"mesh":6,
			"name":"Cylinder.006",
			"rotation":[
				0.24973060190677643,
				0,
				0,
				0.9683153629302979
			],
			"scale":[
				0.38317978382110596,
				0.38317978382110596,
				0.38317978382110596
			],
			"translation":[
				0.06393267214298248,
				-0.03200819343328476,
				0.14788615703582764
			]
		},
		{
			"mesh":7,
			"name":"Cylinder.007",
			"rotation":[
				0,
				0,
				0.13750138878822327,
				0.9905015826225281
			],
			"scale":[
				0.38317981362342834,
				0.38317981362342834,
				0.38317978382110596
			],
			"translation":[
				-0.212391197681427,
				-0.03200819343328476,
				-0.058816440403461456
			]
		},
		{
			"mesh":8,
			"name":"Cylinder.008",
			"rotation":[
				0,
				0,
				0.059519167989492416,
				0.9982271790504456
			],
			"scale":[
				0.38317975401878357,
				0.38317975401878357,
				0.38317978382110596
			],
			"translation":[
				-0.11499321460723877,
				0.01637299358844757,
				-0.0821329653263092
			]
		},
		{
			"mesh":9,
			"name":"Cylinder.009",
			"rotation":[
				0,
				0,
				0.1214422807097435,
				0.9925985932350159
			],
			"scale":[
				0.38317978382110596,
				0.38317978382110596,
				0.38317978382110596
			],
			"translation":[
				0.015663757920265198,
				0.011138729751110077,
				-0.0821329653263092
			]
		},
		{
			"mesh":10,
			"name":"Cylinder.010",
			"scale":[
				0.38317978382110596,
				0.38317978382110596,
				0.38317978382110596
			],
			"translation":[
				-0.0884825736284256,
				-0.03200819343328476,
				0.08291000127792358
			]
		},
		{
			"mesh":11,
			"name":"Cylinder.011",
			"rotation":[
				0.09555492550134659,
				0.01242114882916212,
				0.12830525636672974,
				0.9870424270629883
			],
			"scale":[
				0.38317978382110596,
				0.38317981362342834,
				0.38317978382110596
			],
			"translation":[
				0.019182272255420685,
				0.03182702511548996,
				0.06513765454292297
			]
		},
		{
			"mesh":12,
			"name":"Cylinder.012",
			"scale":[
				0.38317978382110596,
				0.38317978382110596,
				0.38317978382110596
			],
			"translation":[
				-0.036095619201660156,
				0.041796453297138214,
				-0.10756911337375641
			]
		},
		{
			"mesh":13,
			"name":"Cylinder.013",
			"rotation":[
				0.06302281469106674,
				0.005377014167606831,
				0.08483946323394775,
				0.9943850040435791
			],
			"scale":[
				0.38317981362342834,
				0.38317978382110596,
				0.38317978382110596
			],
			"translation":[
				-0.036095619201660156,
				0.06993990391492844,
				-0.021972516551613808
			]
		}
	],
	"materials":[
		{
			"doubleSided":true,
			"name":"Material.002",
			"pbrMetallicRoughness":{
				"baseColorFactor":[
					0.8000000715255737,
					0.5079944729804993,
					0,
					1
				],
				"metallicFactor":0,
				"roughnessFactor":0.6578947305679321
			}
		},
		{
			"doubleSided":true,
			"name":"Material.003",
			"pbrMetallicRoughness":{
				"baseColorFactor":[
					0.8000000715255737,
					0.5079944729804993,
					0,
					1
				],
				"metallicFactor":0,
				"roughnessFactor":0.6578947305679321
			}
		},
		{
			"doubleSided":true,
			"name":"Material.004",
			"pbrMetallicRoughness":{
				"baseColorFactor":[
					0.8000000715255737,
					0.5079944729804993,
					0,
					1
				],
				"metallicFactor":0,
				"roughnessFactor":0.6578947305679321
			}
		},
		{
			"doubleSided":true,
			"name":"Material.005",
			"pbrMetallicRoughness":{
				"baseColorFactor":[
					0.8000000715255737,
					0.5079944729804993,
					0,
					1
				],
				"metallicFactor":0,
				"roughnessFactor":0.6578947305679321
			}
		},
		{
			"doubleSided":true,
			"name":"Material.006",
			"pbrMetallicRoughness":{
				"baseColorFactor":[
					0.8000000715255737,
					0.5079944729804993,
					0,
					1
				],
				"metallicFactor":0,
				"roughnessFactor":0.6578947305679321
			}
		},
		{
			"doubleSided":true,
			"name":"Material.007",
			"pbrMetallicRoughness":{
				"baseColorFactor":[
					0.8000000715255737,
					0.5079944729804993,
					0,
					1
				],
				"metallicFactor":0,
				"roughnessFactor":0.6578947305679321
			}
		},
		{
			"doubleSided":true,
			"name":"Material.008",
			"pbrMetallicRoughness":{
				"baseColorFactor":[
					0.8000000715255737,
					0.5079944729804993,
					0,
					1
				],
				"metallicFactor":0,
				"roughnessFactor":0.6578947305679321
			}
		},
		{
			"doubleSided":true,
			"name":"Material.009",
			"pbrMetallicRoughness":{
				"baseColorFactor":[
					0.8000000715255737,
					0.5079944729804993,
					0,
					1
				],
				"metallicFactor":0,
				"roughnessFactor":0.6578947305679321
			}
		},
		{
			"doubleSided":true,
			"name":"Material.010",
			"pbrMetallicRoughness":{
				"baseColorFactor":[
					0.8000000715255737,
					0.5079944729804993,
					0,
					1
				],
				"metallicFactor":0,
				"roughnessFactor":0.6578947305679321
			}
		},
		{
			"doubleSided":true,
			"name":"Material.011",
			"pbrMetallicRoughness":{
				"baseColorFactor":[
					0.8000000715255737,
					0.5079944729804993,
					0,
					1
				],
				"metallicFactor":0,
				"roughnessFactor":0.6578947305679321
			}
		},
		{
			"doubleSided":true,
			"name":"Material.012",
			"pbrMetallicRoughness":{
				"baseColorFactor":[
					0.8000000715255737,
					0.5079944729804993,
					0,
					1
				],
				"metallicFactor":0,
				"roughnessFactor":0.6578947305679321
			}
		},
		{
			"doubleSided":true,
			"name":"Material.013",
			"pbrMetallicRoughness":{
				"baseColorFactor":[
					0.8000000715255737,
					0.5079944729804993,
					0,
					1
				],
				"metallicFactor":0,
				"roughnessFactor":0.6578947305679321
			}
		},
		{
			"doubleSided":true,
			"name":"Material.014",
			"pbrMetallicRoughness":{
				"baseColorFactor":[
					0.8000000715255737,
					0.5079944729804993,
					0,
					1
				],
				"metallicFactor":0,
				"roughnessFactor":0.6578947305679321
			}
		},
		{
			"doubleSided":true,
			"name":"Material.015",
			"pbrMetallicRoughness":{
				"baseColorFactor":[
					0.8000000715255737,
					0.5079944729804993,
					0,
					1
				],
				"metallicFactor":0,
				"roughnessFactor":0.6578947305679321
			}
		}
	],
	"meshes":[
		{
			"name":"Cylinder.001",
			"primitives":[
				{
					"attributes":{
						"POSITION":0,
						"TEXCOORD_0":1,
						"NORMAL":2
					},
					"indices":3,
					"material":0
				}
			]
		},
		{
			"name":"Cylinder.002",
			"primitives":[
				{
					"attributes":{
						"POSITION":4,
						"TEXCOORD_0":5,
						"NORMAL":6
					},
					"indices":3,
					"material":1
				}
			]
		},
		{
			"name":"Cylinder.003",
			"primitives":[
				{
					"attributes":{
						"POSITION":7,
						"TEXCOORD_0":8,
						"NORMAL":9
					},
					"indices":3,
					"material":2
				}
			]
		},
		{
			"name":"Cylinder.004",
			"primitives":[
				{
					"attributes":{
						"POSITION":10,
						"TEXCOORD_0":11,
						"NORMAL":12
					},
					"indices":3,
					"material":3
				}
			]
		},
		{
			"name":"Cylinder.005",
			"primitives":[
				{
					"attributes":{
						"POSITION":13,
						"TEXCOORD_0":14,
						"NORMAL":15
					},
					"indices":3,
					"material":4
				}
			]
		},
		{
			"name":"Cylinder.006",
			"primitives":[
				{
					"attributes":{
						"POSITION":16,
						"TEXCOORD_0":17,
						"NORMAL":18
					},
					"indices":3,
					"material":5
				}
			]
		},
		{
			"name":"Cylinder.007",
			"primitives":[
				{
					"attributes":{
						"POSITION":19,
						"TEXCOORD_0":20,
						"NORMAL":21
					},
					"indices":3,
					"material":6
				}
			]
		},
		{
			"name":"Cylinder.008",
			"primitives":[
				{
					"attributes":{
						"POSITION":22,
						"TEXCOORD_0":23,
						"NORMAL":24
					},
					"indices":3,
					"material":7
				}
			]
		},
		{
			"name":"Cylinder.009",
			"primitives":[
				{
					"attributes":{
						"POSITION":25,
						"TEXCOORD_0":26,
						"NORMAL":27
					},
					"indices":3,
					"material":8
				}
			]
		},
		{
			"name":"Cylinder.010",
			"primitives":[
				{
					"attributes":{
						"POSITION":28,
						"TEXCOORD_0":29,
						"NORMAL":30
					},
					"indices":3,
					"material":9
				}
			]
		},
		{
			"name":"Cylinder.011",
			"primitives":[
				{
					"attributes":{
						"POSITION":31,
						"TEXCOORD_0":32,
						"NORMAL":33
					},
					"indices":3,
					"material":10
				}
			]
		},
		{
			"name":"Cylinder.012",
			"primitives":[
				{
					"attributes":{
						"POSITION":34,
						"TEXCOORD_0":35,
						"NORMAL":36
					},
					"indices":3,
					"material":11
				}
			]
		},
		{
			"name":"Cylinder.013",
			"primitives":[
				{
					"attributes":{
						"POSITION":37,
						"TEXCOORD_0":38,
						"NORMAL":39
					},
					"indices":3,
					"material":12
				}
			]
		},
		{
			"name":"Cylinder.014",
			"primitives":[
				{
					"attributes":{
						"POSITION":40,
						"TEXCOORD_0":41,
						"NORMAL":42
					},
					"indices":3,
					"material":13
				}
			]
		}
	],
	"accessors":[
		{
			"bufferView":0,
			"componentType":5126,
			"count":120,
			"max":[
				0.2200000286102295,
				0.035000041127204895,
				0.2200000286102295
			],
			"min":[
				-0.2200000286102295,
				-0.035000041127204895,
				-0.2200000286102295
			],
			"type":"VEC3"
		},
		{
			"bufferView":1,
			"componentType":5126,
			"count":120,
			"type":"VEC2"
		},
		{
			"bufferView":2,
			"componentType":5126,
			"count":120,
			"type":"VEC3"
		},
		{
			"bufferView":3,
			"componentType":5123,
			"count":228,
			"type":"SCALAR"
		},
		{
			"bufferView":4,
			"componentType":5126,
			"count":120,
			"max":[
				0.2200000286102295,
				0.035000041127204895,
				0.2200000286102295
			],
			"min":[
				-0.2200000286102295,
				-0.035000041127204895,
				-0.2200000286102295
			],
			"type":"VEC3"
		},
		{
			"bufferView":5,
			"componentType":5126,
			"count":120,
			"type":"VEC2"
		},
		{
			"bufferView":6,
			"componentType":5126,
			"count":120,
			"type":"VEC3"
		},
		{
			"bufferView":7,
			"componentType":5126,
			"count":120,
			"max":[
				0.2200000286102295,
				0.035000041127204895,
				0.2200000286102295
			],
			"min":[
				-0.2200000286102295,
				-0.035000041127204895,
				-0.2200000286102295
			],
			"type":"VEC3"
		},
		{
			"bufferView":8,
			"componentType":5126,
			"count":120,
			"type":"VEC2"
		},
		{
			"bufferView":9,
			"componentType":5126,
			"count":120,
			"type":"VEC3"
		},
		{
			"bufferView":10,
			"componentType":5126,
			"count":120,
			"max":[
				0.2200000286102295,
				0.035000041127204895,
				0.2200000286102295
			],
			"min":[
				-0.2200000286102295,
				-0.035000041127204895,
				-0.2200000286102295
			],
			"type":"VEC3"
		},
		{
			"bufferView":11,
			"componentType":5126,
			"count":120,
			"type":"VEC2"
		},
		{
			"bufferView":12,
			"componentType":5126,
			"count":120,
			"type":"VEC3"
		},
		{
			"bufferView":13,
			"componentType":5126,
			"count":120,
			"max":[
				0.2200000286102295,
				0.035000041127204895,
				0.2200000286102295
			],
			"min":[
				-0.2200000286102295,
				-0.035000041127204895,
				-0.2200000286102295
			],
			"type":"VEC3"
		},
		{
			"bufferView":14,
			"componentType":5126,
			"count":120,
			"type":"VEC2"
		},
		{
			"bufferView":15,
			"componentType":5126,
			"count":120,
			"type":"VEC3"
		},
		{
			"bufferView":16,
			"componentType":5126,
			"count":120,
			"max":[
				0.2200000286102295,
				0.035000041127204895,
				0.2200000286102295
			],
			"min":[
				-0.2200000286102295,
				-0.035000041127204895,
				-0.2200000286102295
			],
			"type":"VEC3"
		},
		{
			"bufferView":17,
			"componentType":5126,
			"count":120,
			"type":"VEC2"
		},
		{
			"bufferView":18,
			"componentType":5126,
			"count":120,
			"type":"VEC3"
		},
		{
			"bufferView":19,
			"componentType":5126,
			"count":120,
			"max":[
				0.2200000286102295,
				0.035000041127204895,
				0.2200000286102295
			],
			"min":[
				-0.2200000286102295,
				-0.035000041127204895,
				-0.2200000286102295
			],
			"type":"VEC3"
		},
		{
			"bufferView":20,
			"componentType":5126,
			"count":120,
			"type":"VEC2"
		},
		{
			"bufferView":21,
			"componentType":5126,
			"count":120,
			"type":"VEC3"
		},
		{
			"bufferView":22,
			"componentType":5126,
			"count":120,
			"max":[
				0.2200000286102295,
				0.035000041127204895,
				0.2200000286102295
			],
			"min":[
				-0.2200000286102295,
				-0.035000041127204895,
				-0.2200000286102295
			],
			"type":"VEC3"
		},
		{
			"bufferView":23,
			"componentType":5126,
			"count":120,
			"type":"VEC2"
		},
		{
			"bufferView":24,
			"componentType":5126,
			"count":120,
			"type":"VEC3"
		},
		{
			"bufferView":25,
			"componentType":5126,
			"count":120,
			"max":[
				0.2200000286102295,
				0.035000041127204895,
				0.2200000286102295
			],
			"min":[
				-0.2200000286102295,
				-0.035000041127204895,
				-0.2200000286102295
			],
			"type":"VEC3"
		},
		{
			"bufferView":26,
			"componentType":5126,
			"count":120,
			"type":"VEC2"
		},
		{
			"bufferView":27,
			"componentType":5126,
			"count":120,
			"type":"VEC3"
		},
		{
			"bufferView":28,
			"componentType":5126,
			"count":120,
			"max":[
				0.2200000286102295,
				0.035000041127204895,
				0.2200000286102295
			],
			"min":[
				-0.2200000286102295,
				-0.035000041127204895,
				-0.2200000286102295
			],
			"type":"VEC3"
		},
		{
			"bufferView":29,
			"componentType":5126,
			"count":120,
			"type":"VEC2"
		},
		{
			"bufferView":30,
			"componentType":5126,
			"count":120,
			"type":"VEC3"
		},
		{
			"bufferView":31,
			"componentType":5126,
			"count":120,
			"max":[
				0.2200000286102295,
				0.035000041127204895,
				0.2200000286102295
			],
			"min":[
				-0.2200000286102295,
				-0.035000041127204895,
				-0.2200000286102295
			],
			"type":"VEC3"
		},
		{
			"bufferView":32,
			"componentType":5126,
			"count":120,
			"type":"VEC2"
		},
		{
			"bufferView":33,
			"componentType":5126,
			"count":120,
			"type":"VEC3"
		},
		{
			"bufferView":34,
			"componentType":5126,
			"count":120,
			"max":[
				0.2200000286102295,
				0.035000041127204895,
				0.2200000286102295
			],
			"min":[
				-0.2200000286102295,
				-0.035000041127204895,
				-0.2200000286102295
			],
			"type":"VEC3"
		},
		{
			"bufferView":35,
			"componentType":5126,
			"count":120,
			"type":"VEC2"
		},
		{
			"bufferView":36,
			"componentType":5126,
			"count":120,
			"type":"VEC3"
		},
		{
			"bufferView":37,
			"componentType":5126,
			"count":120,
			"max":[
				0.2200000286102295,
				0.035000041127204895,
				0.2200000286102295
			],
			"min":[
				-0.2200000286102295,
				-0.035000041127204895,
				-0.2200000286102295
			],
			"type":"VEC3"
		},
		{
			"bufferView":38,
			"componentType":5126,
			"count":120,
			"type":"VEC2"
		},
		{
			"bufferView":39,
			"componentType":5126,
			"count":120,
			"type":"VEC3"
		},
		{
			"bufferView":40,
			"componentType":5126,
			"count":120,
			"max":[
				0.2200000286102295,
				0.035000041127204895,
				0.2200000286102295
			],
			"min":[
				-0.2200000286102295,
				-0.035000041127204895,
				-0.2200000286102295
			],
			"type":"VEC3"
		},
		{
			"bufferView":41,
			"componentType":5126,
			"count":120,
			"type":"VEC2"
		},
		{
			"bufferView":42,
			"componentType":5126,
			"count":120,
			"type":"VEC3"
		}
	],
	"bufferViews":[
		{
			"buffer":0,
			"byteLength":1440,
			"byteOffset":0,
			"target":34962
		},
		{
			"buffer":0,
			"byteLength":960,
			"byteOffset":1440,
			"target":34962
		},
		{
			"buffer":0,
			"byteLength":1440,
			"byteOffset":2400,
			"target":34962
		},
		{
			"buffer":0,
			"byteLength":456,
			"byteOffset":3840,
			"target":34963
		},
		{
			"buffer":0,
			"byteLength":1440,
			"byteOffset":4296,
			"target":34962
		},
		{
			"buffer":0,
			"byteLength":960,
			"byteOffset":5736,
			"target":34962
		},
		{
			"buffer":0,
			"byteLength":1440,
			"byteOffset":6696,
			"target":34962
		},
		{
			"buffer":0,
			"byteLength":1440,
			"byteOffset":8136,
			"target":34962
		},
		{
			"buffer":0,
			"byteLength":960,
			"byteOffset":9576,
			"target":34962
		},
		{
			"buffer":0,
			"byteLength":1440,
			"byteOffset":10536,
			"target":34962
		},
		{
			"buffer":0,
			"byteLength":1440,
			"byteOffset":11976,
			"target":34962
		},
		{
			"buffer":0,
			"byteLength":960,
			"byteOffset":13416,
			"target":34962
		},
		{
			"buffer":0,
			"byteLength":1440,
			"byteOffset":14376,
			"target":34962
		},
		{
			"buffer":0,
			"byteLength":1440,
			"byteOffset":15816,
			"target":34962
		},
		{
			"buffer":0,
			"byteLength":960,
			"byteOffset":17256,
			"target":34962
		},
		{
			"buffer":0,
			"byteLength":1440,
			"byteOffset":18216,
			"target":34962
		},
		{
			"buffer":0,
			"byteLength":1440,
			"byteOffset":19656,
			"target":34962
		},
		{
			"buffer":0,
			"byteLength":960,
			"byteOffset":21096,
			"target":34962
		},
		{
			"buffer":0,
			"byteLength":1440,
			"byteOffset":22056,
			"target":34962
		},
		{
			"buffer":0,
			"byteLength":1440,
			"byteOffset":23496,
			"target":34962
		},
		{
			"buffer":0,
			"byteLength":960,
			"byteOffset":24936,
			"target":34962
		},
		{
			"buffer":0,
			"byteLength":1440,
			"byteOffset":25896,
			"target":34962
		},
		{
			"buffer":0,
			"byteLength":1440,
			"byteOffset":27336,
			"target":34962
		},
		{
			"buffer":0,
			"byteLength":960,
			"byteOffset":28776,
			"target":34962
		},
		{
			"buffer":0,
			"byteLength":1440,
			"byteOffset":29736,
			"target":34962
		},
		{
			"buffer":0,
			"byteLength":1440,
			"byteOffset":31176,
			"target":34962
		},
		{
			"buffer":0,
			"byteLength":960,
			"byteOffset":32616,
			"target":34962
		},
		{
			"buffer":0,
			"byteLength":1440,
			"byteOffset":33576,
			"target":34962
		},
		{
			"buffer":0,
			"byteLength":1440,
			"byteOffset":35016,
			"target":34962
		},
		{
			"buffer":0,
			"byteLength":960,
			"byteOffset":36456,
			"target":34962
		},
		{
			"buffer":0,
			"byteLength":1440,
			"byteOffset":37416,
			"target":34962
		},
		{
			"buffer":0,
			"byteLength":1440,
			"byteOffset":38856,
			"target":34962
		},
		{
			"buffer":0,
			"byteLength":960,
			"byteOffset":40296,
			"target":34962
		},
		{
			"buffer":0,
			"byteLength":1440,
			"byteOffset":41256,
			"target":34962
		},
		{
			"buffer":0,
			"byteLength":1440,
			"byteOffset":42696,
			"target":34962
		},
		{
			"buffer":0,
			"byteLength":960,
			"byteOffset":44136,
			"target":34962
		},
		{
			"buffer":0,
			"byteLength":1440,
			"byteOffset":45096,
			"target":34962
		},
		{
			"buffer":0,
			"byteLength":1440,
			"byteOffset":46536,
			"target":34962
		},
		{
			"buffer":0,
			"byteLength":960,
			"byteOffset":47976,
			"target":34962
		},
		{
			"buffer":0,
			"byteLength":1440,
			"byteOffset":48936,
			"target":34962
		},
		{
			"buffer":0,
			"byteLength":1440,
			"byteOffset":50376,
			"target":34962
		},
		{
			"buffer":0,
			"byteLength":960,
			"byteOffset":51816,
			"target":34962
		},
		{
			"buffer":0,
			"byteLength":1440,
			"byteOffset":52776,
			"target":34962
		}
	],
	"buffers":[
		{
			"byteLength":54216,
			"uri":"gold.bin"
		}
	]
}
