{
	"asset":{
		"generator":"Khronos glTF Blender I/O v3.5.30",
		"version":"2.0"
	},
	"scene":0,
	"scenes":[
		{
			"name":"Scene",
			"nodes":[
				0
			]
		}
	],
	"nodes":[
		{
			"extras":{
				"binders":"[{\"id\":\"position_1\",\"rotation\":{\"x\":90,\"y\":5.34,\"z\":-122.43},\"position\":{\"x\":-2.466,\"y\":4.574,\"z\":5.99},\"scale\":{\"x\":1,\"y\":1,\"z\":1},\"parentNodeName\":\"mixamorig:RightHandIndex1\"},{\"id\":\"position_2\",\"rotation\":{\"x\":90,\"y\":-63.18,\"z\":-90},\"position\":{\"x\":-40.364,\"y\":57.605,\"z\":-27.828},\"scale\":{\"x\":1,\"y\":1,\"z\":1},\"parentNodeName\":\"mixamorig:Spine2\"}]"
			},
			"mesh":0,
			"name":"crystal_sword",
			"scale":[
				0.006013496778905392,
				0.006013496778905392,
				0.006013495847582817
			]
		}
	],
	"animations":[
		{
			"channels":[
				{
					"sampler":0,
					"target":{
						"node":0,
						"path":"translation"
					}
				},
				{
					"sampler":1,
					"target":{
						"node":0,
						"path":"rotation"
					}
				},
				{
					"sampler":2,
					"target":{
						"node":0,
						"path":"scale"
					}
				}
			],
			"name":"crystal_sword",
			"samplers":[
				{
					"input":4,
					"interpolation":"LINEAR",
					"output":5
				},
				{
					"input":4,
					"interpolation":"LINEAR",
					"output":6
				},
				{
					"input":4,
					"interpolation":"LINEAR",
					"output":7
				}
			]
		}
	],
	"materials":[
		{
			"alphaMode":"BLEND",
			"name":"Material.003",
			"pbrMetallicRoughness":{
				"baseColorFactor":[
					0,
					0.6512705087661743,
					0.8000000715255737,
					0.5
				],
				"metallicFactor":0
			}
		}
	],
	"meshes":[
		{
			"extras":{
				"property1":"1.0"
			},
			"name":"Plane.006",
			"primitives":[
				{
					"attributes":{
						"POSITION":0,
						"TEXCOORD_0":1,
						"NORMAL":2
					},
					"indices":3,
					"material":0
				}
			]
		}
	],
	"accessors":[
		{
			"bufferView":0,
			"componentType":5126,
			"count":832,
			"max":[
				7.155982971191406,
				271.18170166015625,
				30.374267578125
			],
			"min":[
				-7.155975341796875,
				-0.19877910614013672,
				-30.36870574951172
			],
			"type":"VEC3"
		},
		{
			"bufferView":1,
			"componentType":5126,
			"count":832,
			"type":"VEC2"
		},
		{
			"bufferView":2,
			"componentType":5126,
			"count":832,
			"type":"VEC3"
		},
		{
			"bufferView":3,
			"componentType":5123,
			"count":852,
			"type":"SCALAR"
		},
		{
			"bufferView":4,
			"componentType":5126,
			"count":15,
			"max":[
				0.6166666696468989
			],
			"min":[
				0.033333336313565574
			],
			"type":"SCALAR"
		},
		{
			"bufferView":5,
			"componentType":5126,
			"count":15,
			"type":"VEC3"
		},
		{
			"bufferView":6,
			"componentType":5126,
			"count":15,
			"type":"VEC4"
		},
		{
			"bufferView":7,
			"componentType":5126,
			"count":15,
			"type":"VEC3"
		}
	],
	"bufferViews":[
		{
			"buffer":0,
			"byteLength":9984,
			"byteOffset":0,
			"target":34962
		},
		{
			"buffer":0,
			"byteLength":6656,
			"byteOffset":9984,
			"target":34962
		},
		{
			"buffer":0,
			"byteLength":9984,
			"byteOffset":16640,
			"target":34962
		},
		{
			"buffer":0,
			"byteLength":1704,
			"byteOffset":26624,
			"target":34963
		},
		{
			"buffer":0,
			"byteLength":60,
			"byteOffset":28328
		},
		{
			"buffer":0,
			"byteLength":180,
			"byteOffset":28388
		},
		{
			"buffer":0,
			"byteLength":240,
			"byteOffset":28568
		},
		{
			"buffer":0,
			"byteLength":180,
			"byteOffset":28808
		}
	],
	"buffers":[
		{
			"byteLength":28988,
			"uri":"crystal_sword.bin"
		}
	]
}
